<svg width="187" height="114" viewBox="0 0 187 114" fill="none" xmlns="http://www.w3.org/2000/svg">
<g filter="url(#filter0_f_32_6486)">
<path d="M92.3694 71.7855C91.698 75.2156 90.114 78.3998 87.7852 81.0009C85.4564 83.6021 82.4693 85.5234 79.1404 86.5614C75.8115 87.5994 72.2646 87.7155 68.8753 86.8974C65.486 86.0795 62.3803 84.3576 59.8872 81.9143L61.3477 95.1557C61.4028 95.6196 61.3455 96.09 61.1808 96.527C61.0161 96.9641 60.7487 97.355 60.4014 97.6664C60.0625 97.9863 59.6526 98.2209 59.2056 98.3508C58.7586 98.4807 58.2872 98.5023 57.8303 98.4137L38.4232 94.5924C37.9667 94.5012 37.5384 94.3025 37.1737 94.0127C36.8088 93.723 36.518 93.3504 36.3249 92.9258C36.1208 92.5056 36.0207 92.0426 36.0332 91.5755C36.0454 91.1084 36.1699 90.6512 36.3958 90.2426L42.742 78.5384C39.0807 80.0411 35.0462 80.3742 31.1891 79.4925C21.1417 77.2103 14.5228 67.094 16.4779 56.9184C16.9632 54.4149 17.9356 52.0319 19.3394 49.9052C20.7433 47.7785 22.5512 45.9498 24.66 44.5236C26.7686 43.0976 29.1369 42.1019 31.6294 41.5934C34.1219 41.0849 36.6898 41.0738 39.1866 41.5604L40.6314 41.9208C40.0526 38.9927 40.1394 35.9715 40.885 33.0816C41.5938 30.3501 42.889 27.8067 44.6802 25.6293C46.4712 23.4519 48.7149 21.693 51.2545 20.4755C53.7941 19.2579 56.5681 18.6111 59.383 18.5804C62.1977 18.5496 64.9852 19.1355 67.5507 20.2973C70.1161 21.459 72.3976 23.1686 74.2356 25.3064C76.0736 27.444 77.4237 29.9585 78.1918 32.6739C78.9598 35.3892 79.1272 38.2401 78.6822 41.0271C78.2371 43.814 77.1904 46.4699 75.6151 48.8091C78.275 49.0886 80.8467 49.9238 83.1651 51.2606C85.4833 52.5975 87.4965 54.4065 89.0749 56.5712C90.6533 58.7358 91.762 61.208 92.3294 63.8285C92.8969 66.449 92.9103 69.1595 92.3694 71.7855Z" fill="#482BD9"/>
</g>
<g filter="url(#filter1_i_32_6486)">
<path d="M53.2097 78.9876H45.4544L52.7788 44.6436L60.7495 43.5636L58.1106 56.0376H58.5414C60.588 56.0376 62.3652 55.0476 63.8732 53.0676C65.417 51.0876 66.189 48.9456 66.189 46.6416C66.189 44.8776 65.6684 43.4916 64.6272 42.4836C63.5859 41.4756 62.1318 40.9716 60.2648 40.9716C55.8127 40.9716 52.2762 42.1596 49.6552 44.5356C47.0342 46.8756 45.7237 50.0616 45.7237 54.0936C45.7237 54.7776 45.7596 55.3716 45.8314 55.8756C45.9391 56.3796 46.1007 56.8656 46.3161 57.3336C46.3879 57.4776 46.4238 57.5856 46.4238 57.6576C46.4597 57.6936 46.4777 57.7296 46.4777 57.7656C44.4671 57.7656 42.995 57.3516 42.0615 56.5236C41.1639 55.6596 40.7151 54.3276 40.7151 52.5276C40.7151 50.7276 41.3075 48.9276 42.4923 47.1276C43.7131 45.3276 45.4006 43.7076 47.5548 42.2676C49.3859 41.0796 51.3427 40.1616 53.4251 39.5136C55.5434 38.8296 57.6079 38.4876 59.6185 38.4876C63.3885 38.4876 66.3685 39.2796 68.5586 40.8636C70.7488 42.4476 71.8439 44.5356 71.8439 47.1276C71.8439 48.8556 71.3053 50.5656 70.2282 52.2576C69.187 53.9496 67.7867 55.3176 66.0274 56.3616C67.2841 56.7216 68.2176 57.3516 68.8279 58.2516C69.4383 59.1156 69.7435 60.2856 69.7435 61.7616C69.7435 62.5896 69.6537 63.5436 69.4742 64.6236C69.2947 65.6676 68.8997 67.2696 68.2894 69.4296C67.7867 71.2656 67.4636 72.5796 67.32 73.3716C67.1763 74.1636 67.1045 74.8476 67.1045 75.4236C67.1045 76.2516 67.284 76.9896 67.6431 77.6376C68.038 78.2856 68.5586 78.7356 69.2049 78.9876C68.1637 79.2756 67.1763 79.4916 66.2428 79.6356C65.3452 79.8156 64.5553 79.9056 63.8732 79.9056C62.4729 79.9056 61.4137 79.5996 60.6957 78.9876C60.0135 78.4116 59.6724 77.5116 59.6724 76.2876C59.6724 75.6756 59.7622 74.9376 59.9417 74.0736C60.1212 73.1736 60.4802 71.6976 61.0188 69.6456C61.6292 67.4136 62.0241 65.7936 62.2036 64.7856C62.4191 63.7416 62.5268 62.8416 62.5268 62.0856C62.5268 60.8616 62.2575 59.9436 61.7189 59.3316C61.1804 58.7196 60.3725 58.4136 59.2954 58.4136C59.1518 58.4136 58.9902 58.4316 58.8107 58.4676C58.6671 58.4676 58.2362 58.5216 57.5182 58.6296L53.2097 78.9876ZM71.9831 70.6716C71.9831 68.6196 72.3063 66.4416 72.9525 64.1376C73.6347 61.8336 74.5503 59.7816 75.6992 57.9816C77.0276 55.8576 78.6254 54.2556 80.4924 53.1756C82.3594 52.0596 84.4418 51.5016 86.7397 51.5016C89.0375 51.5016 90.7609 52.2216 91.9099 53.6616C93.0588 55.1016 93.6332 57.2616 93.6332 60.1416C93.7051 60.1776 93.7769 60.2136 93.8487 60.2496C93.9564 60.2496 94.082 60.2496 94.2257 60.2496C95.3387 60.2496 96.6671 59.9436 98.211 59.3316C99.7549 58.7196 101.191 57.9456 102.519 57.0096L103.004 58.4676C101.999 59.5476 100.652 60.4836 98.965 61.2756C97.3134 62.0676 95.4823 62.6256 93.4717 62.9496C93.0408 67.8096 91.6406 71.7336 89.2709 74.7216C86.9012 77.7096 84.011 79.2036 80.6001 79.2036C77.7996 79.2036 75.6633 78.4836 74.1912 77.0436C72.7192 75.6036 71.9831 73.4796 71.9831 70.6716ZM87.1705 54.7956C85.4471 54.7956 83.8135 56.5416 82.2696 60.0336C80.7617 63.5256 80.0077 66.8376 80.0077 69.9696C80.0077 71.6616 80.1872 72.8136 80.5462 73.4256C80.9412 74.0376 81.6772 74.3436 82.7543 74.3436C84.0828 74.3436 85.3394 73.2636 86.5243 71.1036C87.745 68.9436 88.5708 66.2796 89.0016 63.1116C88.499 63.0036 88.122 62.7696 87.8707 62.4096C87.6552 62.0136 87.5475 61.4916 87.5475 60.8436C87.5475 60.1596 87.6911 59.5656 87.9784 59.0616C88.2656 58.5576 88.6785 58.1796 89.2171 57.9276C89.1452 56.7756 88.9478 55.9656 88.6246 55.4976C88.3374 55.0296 87.8527 54.7956 87.1705 54.7956ZM105.398 74.0736C106.296 74.0736 107.104 73.6956 107.822 72.9396C108.54 72.1836 109.132 71.0856 109.599 69.6456L113.369 51.9876H121.124L115.792 77.0436C117.588 76.3956 118.988 75.4956 119.993 74.3436C121.034 73.1556 121.896 71.4816 122.578 69.3216H124.84C124.014 72.0576 122.83 74.2536 121.286 75.9096C119.778 77.5656 117.785 78.7356 115.308 79.4196L114.5 83.3076C113.854 86.3316 112.723 88.6176 111.107 90.1656C109.491 91.7136 107.391 92.4876 104.806 92.4876C102.975 92.4876 101.503 92.0196 100.39 91.0836C99.3125 90.1476 98.7739 88.8696 98.7739 87.2496C98.7739 85.4856 99.492 83.9196 100.928 82.5516C102.4 81.2196 104.608 80.1036 107.552 79.2036L108.199 76.2876C107.301 77.2956 106.314 78.0516 105.237 78.5556C104.195 79.0596 103.029 79.3116 101.736 79.3116C99.9408 79.3116 98.5226 78.7536 97.4814 77.6376C96.4761 76.4856 95.9734 74.8836 95.9734 72.8316C95.9734 72.3636 96.0093 71.8416 96.0812 71.2656C96.153 70.6536 96.2607 70.0056 96.4043 69.3216L100.066 51.9876H107.822L103.944 70.3476C103.908 70.5636 103.872 70.7976 103.836 71.0496C103.801 71.2656 103.783 71.4816 103.783 71.6976C103.783 72.4536 103.908 73.0476 104.16 73.4796C104.447 73.8756 104.86 74.0736 105.398 74.0736ZM107.014 81.9036C105.219 82.5876 103.89 83.2896 103.029 84.0096C102.167 84.7656 101.736 85.5936 101.736 86.4936C101.736 86.9616 101.916 87.3756 102.275 87.7356C102.634 88.0956 103.064 88.2756 103.567 88.2756C104.178 88.2756 104.77 87.8436 105.344 86.9796C105.919 86.1156 106.368 84.9456 106.691 83.4696L107.014 81.9036ZM140.099 54.4716V54.8496L140.692 51.9876H148.447L144.569 70.3476C144.497 70.6716 144.444 70.9776 144.408 71.2656C144.372 71.5176 144.354 71.7876 144.354 72.0756C144.354 72.8676 144.533 73.4616 144.892 73.8576C145.251 74.2176 145.808 74.3976 146.562 74.3976C147.495 74.3976 148.339 73.9656 149.093 73.1016C149.847 72.2016 150.457 70.9416 150.924 69.3216H153.186C152.037 72.6336 150.547 75.1356 148.716 76.8276C146.885 78.4836 144.767 79.3116 142.361 79.3116C140.817 79.3116 139.579 78.8796 138.645 78.0156C137.747 77.1516 137.227 75.9276 137.083 74.3436C135.97 75.9996 134.732 77.2416 133.367 78.0696C132.039 78.8976 130.603 79.3116 129.059 79.3116C126.833 79.3116 125.073 78.5556 123.781 77.0436C122.524 75.5316 121.896 73.3896 121.896 70.6176C121.896 68.6016 122.201 66.4956 122.811 64.2996C123.422 62.1036 124.265 60.1056 125.343 58.3056C126.671 56.1816 128.215 54.5616 129.974 53.4456C131.734 52.2936 133.654 51.7176 135.737 51.7176C137.137 51.7176 138.214 51.9696 138.968 52.4736C139.722 52.9416 140.099 53.6076 140.099 54.4716ZM139.614 57.1176C139.614 56.5776 139.417 56.1096 139.022 55.7136C138.627 55.2816 138.089 55.0656 137.406 55.0656C135.432 55.0656 133.672 56.7216 132.128 60.0336C130.62 63.3456 129.867 66.6216 129.867 69.8616C129.867 71.2656 130.064 72.3276 130.459 73.0476C130.854 73.7316 131.554 74.0736 132.559 74.0736C133.493 74.0736 134.39 73.6236 135.252 72.7236C136.15 71.8236 136.742 70.6896 137.029 69.3216L139.614 57.1176ZM150.513 72.8316C150.513 72.3636 150.548 71.8416 150.62 71.2656C150.692 70.6536 150.8 70.0056 150.943 69.3216L156.706 42.2676L164.677 41.1876L158.483 70.3476C158.411 70.6716 158.358 70.9776 158.322 71.2656C158.286 71.5176 158.268 71.7876 158.268 72.0756C158.268 72.7956 158.429 73.3176 158.752 73.6416C159.112 73.9296 159.686 74.0736 160.476 74.0736C161.481 74.0736 162.433 73.6416 163.33 72.7776C164.228 71.8776 164.892 70.7256 165.323 69.3216H167.585C166.436 72.5976 164.892 75.0816 162.953 76.7736C161.014 78.4656 158.788 79.3116 156.275 79.3116C154.48 79.3116 153.062 78.7536 152.02 77.6376C151.015 76.4856 150.513 74.8836 150.513 72.8316ZM184.226 56.6856C184.226 59.6736 183.006 62.2836 180.564 64.5156C178.123 66.7116 175.214 67.8996 171.839 68.0796C171.804 68.6916 171.768 69.1596 171.732 69.4836C171.732 69.7716 171.732 70.0236 171.732 70.2396C171.732 71.8956 172.001 73.0656 172.54 73.7496C173.114 74.4336 174.137 74.7756 175.609 74.7756C177.297 74.7756 178.841 74.3976 180.241 73.6416C181.677 72.8496 183.311 71.4096 185.142 69.3216H186.973C184.891 72.7056 182.629 75.2256 180.187 76.8816C177.746 78.5016 175.071 79.3116 172.163 79.3116C169.398 79.3116 167.298 78.5916 165.861 77.1516C164.461 75.7116 163.761 73.5696 163.761 70.7256C163.761 68.6736 164.084 66.4956 164.73 64.1916C165.377 61.8876 166.238 59.8356 167.316 58.0356C168.644 55.8756 170.224 54.2556 172.055 53.1756C173.922 52.0596 176.004 51.5016 178.302 51.5016C180.277 51.5016 181.749 51.9336 182.718 52.7976C183.724 53.6256 184.226 54.9216 184.226 56.6856ZM178.733 54.3636C177.512 54.3636 176.274 55.4616 175.017 57.6576C173.796 59.8176 172.881 62.4276 172.27 65.4876C174.353 65.3436 176.166 64.3896 177.71 62.6256C179.29 60.8256 180.079 58.8096 180.079 56.5776C180.079 55.8216 179.972 55.2636 179.756 54.9036C179.541 54.5436 179.2 54.3636 178.733 54.3636Z" fill="url(#paint0_linear_32_6486)"/>
</g>
<defs>
<filter id="filter0_f_32_6486" x="13.1355" y="15.5792" width="82.6299" height="85.8881" filterUnits="userSpaceOnUse" color-interpolation-filters="sRGB">
<feFlood flood-opacity="0" result="BackgroundImageFix"/>
<feBlend mode="normal" in="SourceGraphic" in2="BackgroundImageFix" result="shape"/>
<feGaussianBlur stdDeviation="1.5" result="effect1_foregroundBlur_32_6486"/>
</filter>
<filter id="filter1_i_32_6486" x="40.7151" y="38.4876" width="146.258" height="58" filterUnits="userSpaceOnUse" color-interpolation-filters="sRGB">
<feFlood flood-opacity="0" result="BackgroundImageFix"/>
<feBlend mode="normal" in="SourceGraphic" in2="BackgroundImageFix" result="shape"/>
<feColorMatrix in="SourceAlpha" type="matrix" values="0 0 0 0 0 0 0 0 0 0 0 0 0 0 0 0 0 0 127 0" result="hardAlpha"/>
<feOffset dy="4"/>
<feGaussianBlur stdDeviation="2"/>
<feComposite in2="hardAlpha" operator="arithmetic" k2="-1" k3="1"/>
<feColorMatrix type="matrix" values="0 0 0 0 0 0 0 0 0 0 0 0 0 0 0 0 0 0 0.25 0"/>
<feBlend mode="normal" in2="shape" result="effect1_innerShadow_32_6486"/>
</filter>
<linearGradient id="paint0_linear_32_6486" x1="40.392" y1="66.9876" x2="185.504" y2="66.9876" gradientUnits="userSpaceOnUse">
<stop stop-color="#BEB9DA"/>
<stop offset="1" stop-color="white"/>
</linearGradient>
</defs>
</svg>
